<svg width="116" height="33" viewBox="0 0 116 33" fill="none" xmlns="http://www.w3.org/2000/svg">
<path d="M27.2 2.27005L25.79 10.91C24.59 9.87005 23.29 9.08005 21.88 8.55005C20.47 8.02005 19 7.75005 17.47 7.75005C14.87 7.75005 12.74 8.66005 11.05 10.47C9.37 12.28 8.53 14.59 8.53 17.4C8.53 19.94 9.24 21.9 10.65 23.29C12.06 24.68 14.06 25.3801 16.64 25.3801C17.75 25.3801 18.9 25.24 20.07 24.97C21.25 24.7 22.48 24.29 23.78 23.75L22.48 31.86C21.41 32.2 20.23 32.46 18.94 32.64C17.65 32.82 16.26 32.91 14.76 32.91C10.3 32.91 6.72 31.53 4.03 28.76C1.34 25.99 0 22.32 0 17.74C0 15.53 0.349997 13.42 1.04 11.42C1.73 9.42004 2.75 7.60005 4.09 5.95005C5.66 4.04005 7.62 2.58005 9.96 1.57005C12.3 0.560045 14.93 0.0500488 17.84 0.0500488C19.49 0.0500488 21.1 0.240046 22.65 0.610046C24.2 0.980046 25.72 1.54004 27.21 2.28004" fill="#8F307D"/>
<path d="M25.1016 32.1L28.5016 10.5H36.1816L32.7616 32.1H25.1016ZM29.0716 4.07C29.0716 2.96 29.4716 2 30.2616 1.2C31.0516 0.400005 32.0116 0 33.1416 0C34.3216 0 35.3116 0.390004 36.0916 1.16C36.8716 1.93 37.2716 2.9 37.2716 4.07C37.2716 5.24 36.8716 6.2 36.0716 7C35.2716 7.8 34.3016 8.2 33.1416 8.2C31.9816 8.2 31.0516 7.8 30.2616 6.99C29.4716 6.18 29.0716 5.21 29.0716 4.07Z" fill="#8F307D"/>
<path d="M36.2092 32.11L39.6292 10.51H46.9392L46.4092 14.19C47.0792 12.82 47.9792 11.78 49.0992 11.07C50.2292 10.36 51.5392 10 53.0292 10C53.1892 10 53.3692 10.01 53.5692 10.03C53.7692 10.05 54.0792 10.1 54.5092 10.17L52.9892 16.95C52.4892 16.84 52.0392 16.75 51.6392 16.69C51.2392 16.63 50.8592 16.6 50.4892 16.6C49.0192 16.6 47.8592 17.06 47.0092 17.98C46.1592 18.9 45.5792 20.32 45.2692 22.25L43.7292 32.11H36.1992H36.2092Z" fill="#8F307D"/>
<path d="M52.2817 32.11L55.7017 10.51H63.0117L62.4817 14.19C63.1517 12.82 64.0517 11.78 65.1717 11.07C66.3017 10.36 67.6117 10 69.1017 10C69.2617 10 69.4417 10.01 69.6317 10.03C69.8317 10.05 70.1417 10.1 70.5717 10.17L69.0517 16.95C68.5517 16.84 68.1017 16.75 67.7017 16.69C67.3017 16.63 66.9217 16.6 66.5517 16.6C65.0817 16.6 63.9217 17.06 63.0717 17.98C62.2217 18.9 61.6417 20.32 61.3317 22.25L59.7917 32.11H52.2617H52.2817Z" fill="#8F307D"/>
<path d="M71.402 10.5H78.972L77.562 19.44C77.392 20.62 77.252 21.61 77.152 22.4C77.052 23.19 77.002 23.71 77.002 23.95C77.002 24.98 77.252 25.76 77.742 26.3C78.232 26.84 78.952 27.11 79.892 27.11C82.092 27.11 83.572 24.62 84.342 19.65C84.382 19.38 84.422 19.17 84.452 19.03L85.802 10.5H93.392L91.852 20.27L91.792 20.72C91.032 25.36 89.862 28.45 88.262 30C87.252 30.97 86.012 31.7 84.552 32.19C83.092 32.68 81.442 32.93 79.602 32.93C76.422 32.93 73.912 32.21 72.082 30.77C70.252 29.33 69.332 27.38 69.332 24.91C69.332 24.34 69.382 23.62 69.482 22.76C69.582 21.9 69.782 20.57 70.082 18.77L71.412 10.49L71.402 10.5Z" fill="#8F307D"/>
<path d="M111.022 12.0901L108.802 16.9501C107.822 16.2501 106.912 15.7401 106.082 15.4201C105.252 15.1001 104.432 14.9401 103.622 14.9401C102.942 14.9401 102.372 15.1001 101.922 15.4101C101.472 15.7201 101.252 16.1101 101.252 16.5601C101.252 17.2201 101.992 17.8301 103.472 18.4001C104.132 18.6401 104.642 18.8501 105.012 19.0201C107.082 19.9201 108.532 20.8501 109.352 21.8101C110.182 22.7701 110.592 23.9701 110.592 25.4101C110.592 27.6801 109.712 29.5001 107.962 30.8701C106.212 32.2501 103.872 32.9301 100.942 32.9301C99.292 32.9301 97.712 32.7101 96.202 32.2801C94.702 31.8501 93.242 31.1901 91.832 30.3001L94.382 25.1201C95.832 26.0201 97.052 26.6501 98.042 27.0201C99.022 27.3901 99.952 27.5801 100.822 27.5801C101.582 27.5801 102.182 27.4101 102.642 27.0801C103.102 26.7401 103.322 26.3101 103.322 25.7901C103.322 24.9801 102.272 24.1401 100.182 23.2901C99.552 23.0301 99.072 22.8301 98.732 22.6901C97.062 21.9501 95.882 21.1401 95.182 20.2701C94.482 19.4001 94.132 18.3201 94.132 17.0201C94.132 14.9501 94.992 13.2301 96.722 11.8701C98.452 10.5001 100.662 9.82007 103.372 9.82007C104.742 9.82007 106.072 10.0101 107.372 10.4001C108.672 10.7901 109.892 11.3501 111.032 12.0901" fill="#8F307D"/>
<path d="M108.059 3.78005H106.539V3.31006H110.089V3.78005H108.569V7.83006H108.059V3.78005Z" stroke="#8F307D" stroke-width="0.22" stroke-miterlimit="10"/>
<path d="M111.051 3.31006H111.571L113.221 5.77006L114.871 3.31006H115.381V7.83006H114.871V4.16006L113.231 6.59006H113.201L111.551 4.17005V7.83006H111.051V3.31006Z" stroke="#8F307D" stroke-width="0.22" stroke-miterlimit="10"/>
</svg>
