<?xml version="1.0" encoding="utf-8"?>
<!-- Generator: Adobe Illustrator 26.0.0, SVG Export Plug-In . SVG Version: 6.00 Build 0)  -->
<svg version="1.1" id="Layer_1" xmlns="http://www.w3.org/2000/svg" xmlns:xlink="http://www.w3.org/1999/xlink" x="0px" y="0px"
	 viewBox="0 0 87.6 64.8" style="enable-background:new 0 0 87.6 64.8;" xml:space="preserve">
<style type="text/css">
	.st0{fill:url(#SVGID_1_);}
	.st1{fill:url(#SVGID_00000181796094315409947640000017091155671985844918_);}
</style>
<g>
	<linearGradient id="SVGID_1_" gradientUnits="userSpaceOnUse" x1="5.3784" y1="32.4" x2="82.1915" y2="32.4">
		<stop  offset="0" style="stop-color:#FFEDE9"/>
		<stop  offset="0.3179" style="stop-color:#FFC4B5"/>
		<stop  offset="0.6799" style="stop-color:#FFFFFF"/>
		<stop  offset="1" style="stop-color:#E0FFB9"/>
	</linearGradient>
	<path class="st0" d="M43.6,63c-2.2,0-4.3-1-5.7-2.8L6.9,19.6c-0.9-1.2-1.5-2.8-1.5-4.3V9c0-3.9,3.2-7.1,7.1-7.1h1
		c1,0,2,0.2,2.9,0.6l25,11.3c-0.1-0.6-0.2-1.2-0.2-1.8V9c0-3.9,3.2-7.1,7.1-7.1H75C79,1.8,82.2,5,82.2,9v3c0,3.9-3.2,7.1-7.1,7.1
		h-1.2l-4.4,7.4l8.5,3.9c3.4,1.5,5,5.5,3.7,9c-1,2.8-3.7,4.6-6.7,4.6c-0.7,0-1.4-0.1-2-0.3l-11.7-3.5L49.7,59.5
		c-1.2,2-3.3,3.3-5.7,3.5C43.9,63,43.8,63,43.6,63z"/>
	
		<linearGradient id="SVGID_00000101814934118884523010000017816999062626368137_" gradientUnits="userSpaceOnUse" x1="9.6976" y1="33.4898" x2="77.8723" y2="33.4898" gradientTransform="matrix(1 0 0 -1 0 65.8898)">
		<stop  offset="0" style="stop-color:#311F50"/>
		<stop  offset="1" style="stop-color:#6F378D"/>
	</linearGradient>
	<path style="fill:url(#SVGID_00000101814934118884523010000017816999062626368137_);" d="M43.6,57.9l15.7-26.1l18.6,5.5l-17.2-7.8
		l11.6-19.3h5.7V6.9H48.8v3.3h12.9l-9.1,15.6l-41.8-19H9.7v6.8L43.6,57.9L43.6,57.9z M43,42.3L21.9,16.6l29,12.1L43,42.3z"/>
</g>
</svg>
